<svg xmlns="http://www.w3.org/2000/svg" xmlns:xlink="http://www.w3.org/1999/xlink" viewBox="0 0 3705.22 2413"><defs><style>.cls-1,.cls-20{fill:#554596;}.cls-1,.cls-30,.cls-38,.cls-39,.cls-55{stroke:#554596;}.cls-1,.cls-15,.cls-2,.cls-22,.cls-23,.cls-27,.cls-28,.cls-29,.cls-3,.cls-30,.cls-32,.cls-38,.cls-39,.cls-4,.cls-41,.cls-43,.cls-45,.cls-49,.cls-5,.cls-55,.cls-6,.cls-7,.cls-8,.cls-9{stroke-miterlimit:10;}.cls-1,.cls-15,.cls-2,.cls-3,.cls-4,.cls-5,.cls-6,.cls-7,.cls-8,.cls-9{stroke-width:6px;}.cls-13,.cls-2,.cls-5{fill:#e30613;}.cls-2,.cls-22,.cls-28,.cls-43{stroke:#b81a5d;}.cls-10,.cls-3{fill:#009640;}.cls-3{stroke:#009640;}.cls-21,.cls-4{fill:#009ed4;}.cls-23,.cls-27,.cls-4,.cls-41,.cls-49{stroke:#009ed4;}.cls-32,.cls-45,.cls-5{stroke:#e30613;}.cls-12,.cls-6{fill:#135e31;}.cls-6{stroke:#135e31;}.cls-17,.cls-7{fill:#e84e0f;}.cls-7{stroke:#e84e0f;}.cls-19,.cls-8{fill:#f18700;}.cls-8{stroke:#f18700;}.cls-18,.cls-9{fill:#009cb4;}.cls-9{stroke:#009cb4;}.cls-11,.cls-15{fill:#fbba00;}.cls-14{fill:url(#radial-gradient);}.cls-15{stroke:#fbba00;}.cls-16{fill:#b81a5d;}.cls-22,.cls-31,.cls-36,.cls-38,.cls-49,.cls-53{font-size:150px;}.cls-22,.cls-28,.cls-43{fill:#68113a;}.cls-22,.cls-23,.cls-24,.cls-25,.cls-26,.cls-27,.cls-28,.cls-29,.cls-30,.cls-31,.cls-32,.cls-33,.cls-34,.cls-35,.cls-36,.cls-37,.cls-38,.cls-39,.cls-40,.cls-41,.cls-42,.cls-43,.cls-44,.cls-45,.cls-46,.cls-47,.cls-48,.cls-49,.cls-50,.cls-51,.cls-52,.cls-53,.cls-54,.cls-55,.cls-56,.cls-57,.cls-58,.cls-59{font-family:MyriadPro-Regular, Myriad Pro;}.cls-23{font-size:140px;}.cls-23,.cls-27,.cls-41,.cls-49{fill:#035d75;}.cls-24,.cls-45{font-size:120px;}.cls-24,.cls-26,.cls-50,.cls-53{fill:#a35704;}.cls-25{font-size:81.67px;}.cls-25,.cls-36,.cls-48,.cls-56,.cls-57{fill:#025624;}.cls-26,.cls-37{font-size:75px;}.cls-27{font-size:96.01px;}.cls-28{font-size:55px;}.cls-29{font-size:122.46px;fill:#8e190d;stroke:#f15a24;}.cls-30,.cls-33{font-size:80px;}.cls-30,.cls-38,.cls-39,.cls-55{fill:#2f2856;}.cls-31,.cls-35{fill:#082815;}.cls-32{font-size:99.36px;}.cls-32,.cls-45{fill:#840612;}.cls-33,.cls-42,.cls-52,.cls-59{fill:#025760;}.cls-34{font-size:155px;}.cls-34,.cls-37,.cls-40,.cls-44,.cls-54,.cls-58{fill:#705103;}.cls-35,.cls-43,.cls-50,.cls-51,.cls-55{font-size:100px;}.cls-39{font-size:90px;}.cls-40{font-size:129.56px;}.cls-41{font-size:82.05px;}.cls-42{font-size:110px;}.cls-44{font-size:83.66px;}.cls-46{font-size:76.41px;}.cls-46,.cls-47,.cls-51{fill:#842b0c;}.cls-47{font-size:77.73px;}.cls-48{font-size:72.75px;}.cls-52{font-size:125.25px;}.cls-54{font-size:117.43px;}.cls-56{font-size:137.56px;}.cls-57{font-size:85.55px;}.cls-58{font-size:67.09px;}.cls-59{font-size:143.25px;}</style><radialGradient id="radial-gradient" cx="3393.21" cy="1562.24" r="134.97" gradientUnits="userSpaceOnUse"><stop offset="0" stop-color="#fbba00"/><stop offset="1" stop-color="#ffba00"/></radialGradient></defs><title>MATH</title><g id="Layer_1" data-name="Layer 1"><line class="cls-1" x1="876.98" y1="1309.34" x2="884.22" y2="1723"/><line class="cls-2" x1="3148.22" y1="1957" x2="3157.22" y2="1308"/><line class="cls-3" x1="913.22" y1="1716" x2="1293.22" y2="1479"/><line class="cls-4" x1="390.22" y1="1673" x2="124.22" y2="1705"/><line class="cls-5" x1="1156.22" y1="2181" x2="939.22" y2="1744"/><line class="cls-5" x1="1128.22" y1="2184" x2="603.22" y2="2012"/><line class="cls-6" x1="251.22" y1="2045" x2="403.22" y2="1693"/><line class="cls-6" x1="913.22" y1="1760" x2="418.22" y2="1673"/><line class="cls-6" x1="606.22" y1="2018" x2="415.22" y2="1657"/><line class="cls-6" x1="783.22" y1="2309" x2="606.22" y2="2018"/><line class="cls-6" x1="1128.22" y1="2182" x2="794.22" y2="2300"/><line class="cls-6" x1="251.22" y1="2045" x2="606.22" y2="2028"/><line class="cls-6" x1="883.22" y1="1744" x2="615.22" y2="2016"/><line class="cls-6" x1="251.22" y1="2016" x2="124.22" y2="1705"/><line class="cls-6" x1="176.22" y1="1346" x2="112.22" y2="1730"/><line class="cls-6" x1="119.22" y1="1714" x2="58.22" y2="2328"/><line class="cls-6" x1="778.22" y1="2273" x2="70.22" y2="2328"/><line class="cls-2" x1="2142.22" y1="687" x2="1721.22" y2="662"/><line class="cls-2" x1="2561.22" y1="726" x2="2809.22" y2="690"/><line class="cls-7" x1="2809.22" y1="690" x2="2730.22" y2="991"/><line class="cls-7" x1="3127.22" y1="811" x2="2809.22" y2="706"/><line class="cls-7" x1="3122.22" y1="795" x2="3397.22" y2="720"/><line class="cls-7" x1="3399.22" y1="1050" x2="3401.22" y2="741"/><line class="cls-7" x1="3392.22" y1="1050" x2="3213.22" y2="1190"/><line class="cls-7" x1="3135.22" y1="1144" x2="3137.22" y2="835"/><line class="cls-7" x1="3399.22" y1="1050" x2="3117.22" y2="840"/><line class="cls-7" x1="3127.22" y1="799" x2="2730.22" y2="991"/><line class="cls-2" x1="3151.22" y1="1276" x2="3394.22" y2="1566"/><line class="cls-1" x1="1303.22" y1="1485" x2="866.22" y2="1305"/><line class="cls-3" x1="1215.22" y1="1107" x2="1532.22" y2="993"/><line class="cls-1" x1="1215.22" y1="1117" x2="878.98" y2="869.34"/><line class="cls-1" x1="883.22" y1="874" x2="585.22" y2="671"/><line class="cls-1" x1="418.22" y1="1016" x2="585.22" y2="671"/><line class="cls-1" x1="415.22" y1="962" x2="142.22" y2="753"/><line class="cls-1" x1="1357.22" y1="743" x2="585.22" y2="655"/><line class="cls-1" x1="1548.22" y1="989" x2="1357.98" y2="707.34"/><line class="cls-1" x1="1548.22" y1="989" x2="1647.22" y2="1249"/><line class="cls-8" x1="2004.22" y1="1657" x2="2151.22" y2="1251"/><line class="cls-8" x1="2322.22" y1="1839" x2="2162.22" y2="1251"/><line class="cls-8" x1="2413.22" y1="1520" x2="2183.22" y2="1251"/><line class="cls-8" x1="2777.22" y1="1442" x2="2771.22" y2="1706"/><line class="cls-8" x1="2768.22" y1="1442" x2="2730.22" y2="991"/><line class="cls-8" x1="2794.22" y1="1438" x2="3159.22" y2="1952"/><line class="cls-8" x1="1976.22" y1="2085" x2="1695.22" y2="1657"/><line class="cls-9" x1="1644.67" y1="1218.16" x2="1696.59" y2="1665.01"/><line class="cls-9" x1="1924.22" y1="1400" x2="1697.22" y2="1650"/><line class="cls-9" x1="1293.22" y1="1479" x2="1730.22" y2="1665"/><line class="cls-9" x1="1882.22" y1="860" x2="2146.22" y2="1259"/><line class="cls-9" x1="2774.22" y1="1442" x2="2183.22" y2="1234"/><line class="cls-9" x1="1933.22" y1="1388" x2="1992.22" y2="1691"/><line class="cls-9" x1="1707.22" y1="1657" x2="1993.22" y2="1690"/><line class="cls-9" x1="2162.22" y1="1240" x2="1933.22" y2="1388"/><line class="cls-9" x1="2162.22" y1="1241" x2="1933.22" y2="1389"/><line class="cls-9" x1="2162.22" y1="1254" x2="2265.22" y2="936"/><line class="cls-9" x1="1366.22" y1="1912" x2="1707.22" y2="1657"/><line class="cls-9" x1="1352.22" y1="1903" x2="913.22" y2="1737"/><line class="cls-9" x1="1341.22" y1="1921" x2="1583.22" y2="2241"/><line class="cls-9" x1="1375.22" y1="1905" x2="1976.22" y2="2102"/><line class="cls-9" x1="1349.22" y1="1895" x2="1295.22" y2="1485"/><circle class="cls-10" cx="1235.14" cy="1124.6" r="74.74"/><circle class="cls-10" cx="1717.62" cy="655.75" r="55.7"/><circle class="cls-10" cx="1643.23" cy="1236.87" r="103"/><circle class="cls-11" cx="3145.23" cy="1960.34" r="103"/><circle class="cls-10" cx="1880.96" cy="859.47" r="134.97"/><circle class="cls-12" cx="913.03" cy="1736.99" r="134.97"/><circle class="cls-12" cx="605.85" cy="2018.2" r="83.48"/><circle class="cls-12" cx="124.01" cy="1705.2" r="66.94"/><circle class="cls-12" cx="66.94" cy="2325.68" r="66.94"/><circle class="cls-12" cx="774.78" cy="2269.56" r="83.48"/><circle class="cls-12" cx="268.1" cy="2066.89" r="123.81"/><line class="cls-3" x1="1209.24" y1="1113.23" x2="1655.63" y2="1239"/><line class="cls-3" x1="1933.22" y1="1388" x2="1657.63" y2="1248"/><line class="cls-3" x1="1220.22" y1="1130" x2="1279.22" y2="1494"/><line class="cls-3" x1="1856.26" y1="872.97" x2="1647.3" y2="1248.89"/><line class="cls-3" x1="1882.22" y1="860" x2="1357.22" y2="743"/><line class="cls-3" x1="1891.22" y1="819" x2="1551.22" y2="995"/><line class="cls-3" x1="1866.22" y1="868" x2="2147.22" y2="709"/><line class="cls-3" x1="1920.22" y1="868" x2="2265.22" y2="936"/><line class="cls-3" x1="1888.22" y1="882" x2="1721.22" y2="662"/><line class="cls-3" x1="1357.22" y1="743" x2="1697.22" y2="677"/><line class="cls-3" x1="1882.22" y1="860" x2="1922.22" y2="1371"/><circle class="cls-10" cx="1292.98" cy="1492.07" r="72.5"/><line class="cls-3" x1="1259.26" y1="1517" x2="1620.96" y2="1249.69"/><circle class="cls-13" cx="1626.22" cy="2310" r="102.5"/><path class="cls-13" d="M1635.94,1629.52a102,102,0,1,1-102,102,102.11,102.11,0,0,1,102-102m0-1a103,103,0,1,0,103,103,103,103,0,0,0-103-103Z" transform="translate(-9.72 578.48)"/><circle class="cls-13" cx="2416.35" cy="1652.81" r="134.47" transform="translate(242.87 4203.28) rotate(-76.72)"/><path class="cls-13" d="M2416.35,1518.84a134,134,0,1,1-94.73,39.24,133.09,133.09,0,0,1,94.73-39.24m0-1a135,135,0,1,0,135,135,135,135,0,0,0-135-135Z" transform="translate(-9.72 578.48)"/><path class="cls-13" d="M1157.3,1682.3a72,72,0,1,1,44.18-128.89,72,72,0,0,1-44.18,128.89Z" transform="translate(-9.72 578.48)"/><path class="cls-13" d="M1157.4,1538.8a71.5,71.5,0,1,1-56.55,27.68,70.85,70.85,0,0,1,56.55-27.68h0m0-1a72.49,72.49,0,1,0,44.38,15.21,72.36,72.36,0,0,0-44.38-15.21Z" transform="translate(-9.72 578.48)"/><line class="cls-5" x1="1629.26" y1="2302" x2="1990.96" y2="2034.69"/><line class="cls-5" x1="1643.26" y1="2317" x2="1146.22" y2="2191"/><line class="cls-5" x1="2413.22" y1="2226" x2="2325.96" y2="1839.69"/><line class="cls-5" x1="1162.22" y1="2191" x2="1357.22" y2="1905"/><line class="cls-5" x1="2387.22" y1="2220" x2="1954.22" y2="2109"/><line class="cls-5" x1="2813.22" y1="2181" x2="2413.22" y2="2226"/><circle class="cls-11" cx="2771.56" cy="1705.74" r="74.74"/><circle class="cls-14" cx="3393.21" cy="1562.24" r="134.97"/><line class="cls-15" x1="3368.26" y1="1578.97" x2="3159.3" y2="1954.89"/><line class="cls-15" x1="3394.26" y1="1583.97" x2="3399.22" y2="1050"/><circle class="cls-11" cx="2828.22" cy="2192.03" r="102.99"/><circle class="cls-11" cx="2756.28" cy="1955.41" r="51.88"/><line class="cls-15" x1="2771.26" y1="2223" x2="3132.96" y2="1955.69"/><line class="cls-15" x1="2796.26" y1="2178" x2="2330.22" y2="1860"/><line class="cls-15" x1="3370.22" y1="2257" x2="2812.22" y2="2198"/><line class="cls-15" x1="3376.22" y1="2271" x2="3394.22" y2="1584"/><circle class="cls-11" cx="3371.44" cy="2251.65" r="72.5"/><line class="cls-15" x1="3402.78" y1="2291.62" x2="3130.64" y2="1933.53"/><line class="cls-15" x1="2771.22" y1="1706" x2="3158.96" y2="1951.69"/><line class="cls-15" x1="2761.22" y1="1722" x2="2338.22" y2="1831"/><line class="cls-15" x1="2761.22" y1="1722" x2="2408.22" y2="1535"/><line class="cls-15" x1="2312.22" y1="1851" x2="2770.22" y2="1935"/><line class="cls-15" x1="2761.22" y1="1947" x2="3148.22" y2="1957"/><line class="cls-15" x1="2770.22" y1="1935" x2="2853.22" y2="2191"/><line class="cls-15" x1="2777.22" y1="1694" x2="2770.22" y2="1935"/><circle class="cls-16" cx="2265.22" cy="936" r="102.5"/><path class="cls-16" d="M2274.94,255.52a102,102,0,1,1-102,102,102.11,102.11,0,0,1,102-102m0-1a103,103,0,1,0,103,103,103,103,0,0,0-103-103Z" transform="translate(-9.72 578.48)"/><circle class="cls-17" cx="2806.23" cy="694.74" r="67.5"/><path class="cls-16" d="M2815.94,49.25a67,67,0,1,1-67,67,67.07,67.07,0,0,1,67-67m0-1a68,68,0,1,0,68,68,68,68,0,0,0-68-68Z" transform="translate(-9.72 578.48)"/><circle class="cls-16" cx="2720.72" cy="988.5" r="128"/><path class="cls-16" d="M2730.43,282.52a127.5,127.5,0,1,1-90.15,37.34,126.67,126.67,0,0,1,90.15-37.34m0-1A128.5,128.5,0,1,0,2858.93,410a128.5,128.5,0,0,0-128.5-128.5Z" transform="translate(-9.72 578.48)"/><circle class="cls-17" cx="3125.73" cy="817.97" r="128"/><path class="cls-16" d="M3135.44,112a127.5,127.5,0,1,1-90.15,37.34A126.67,126.67,0,0,1,3135.44,112m0-1a128.5,128.5,0,1,0,128.5,128.5A128.5,128.5,0,0,0,3135.44,111Z" transform="translate(-9.72 578.48)"/><circle class="cls-16" cx="3148" cy="1277.99" r="134.5"/><path class="cls-16" d="M3157.72,565.5A134,134,0,1,1,3063,604.75a133.12,133.12,0,0,1,94.75-39.25m0-1a135,135,0,1,0,135,135,135,135,0,0,0-135-135Z" transform="translate(-9.72 578.48)"/><line class="cls-2" x1="3125.22" y1="1289" x2="2724.22" y2="988"/><line class="cls-2" x1="2265.22" y1="936" x2="2674.22" y2="977"/><line class="cls-2" x1="2147.22" y1="709" x2="2571.22" y2="713"/><line class="cls-2" x1="2162.22" y1="725" x2="2724.22" y2="988"/><line class="cls-2" x1="2571.22" y1="713" x2="2730.22" y2="975"/><line class="cls-2" x1="2143.22" y1="709" x2="2302.22" y2="971"/><line class="cls-2" x1="3160.22" y1="1235" x2="2820.22" y2="1411"/><path class="cls-16" d="M2156.46,202a72,72,0,0,1,.1-144,71.3,71.3,0,0,1,44.08,15.12A72,72,0,0,1,2156.46,202Z" transform="translate(-9.72 578.48)"/><path class="cls-16" d="M2156.57,58.52a70.77,70.77,0,0,1,43.76,15,71.5,71.5,0,0,1-43.87,128,70.79,70.79,0,0,1-43.77-15,71.5,71.5,0,0,1,43.88-128h0m0-1A72.51,72.51,0,1,0,2201,72.74a72.42,72.42,0,0,0-44.39-15.22Z" transform="translate(-9.72 578.48)"/><path class="cls-16" d="M2580.43,192a57.39,57.39,0,0,1-35.49-12.16,58,58,0,0,1,35.57-103.79,58,58,0,0,1-.08,116Z" transform="translate(-9.72 578.48)"/><path class="cls-16" d="M2580.51,75.56v1h0a56.91,56.91,0,0,1,35.18,12.06,57.47,57.47,0,0,1-35.26,102.89,56.94,56.94,0,0,1-35.19-12.06,57.47,57.47,0,0,1,35.27-102.89v-1m0,0a58.48,58.48,0,1,0,35.79,12.27,58.39,58.39,0,0,0-35.79-12.27Z" transform="translate(-9.72 578.48)"/><path class="cls-17" d="M3408.72,529a57.44,57.44,0,0,1-35.49-12.17,58,58,0,0,1,35.58-103.78,57.44,57.44,0,0,1,35.48,12.16A58,58,0,0,1,3408.72,529Z" transform="translate(-9.72 578.48)"/><path class="cls-16" d="M3408.81,412.59v1h0A56.91,56.91,0,0,1,3444,425.65a57.47,57.47,0,0,1-35.27,102.89,56.91,56.91,0,0,1-35.18-12.06,57.47,57.47,0,0,1,35.27-102.89v-1m0,0a58.48,58.48,0,1,0,35.79,12.27,58.36,58.36,0,0,0-35.79-12.27Z" transform="translate(-9.72 578.48)"/><path class="cls-17" d="M3407.64,201.57a57.4,57.4,0,0,1-35.49-12.17,58,58,0,0,1,35.57-103.78,58,58,0,1,1-.08,116Z" transform="translate(-9.72 578.48)"/><path class="cls-16" d="M3407.73,85.12v1h0a56.88,56.88,0,0,1,35.17,12.06,57.47,57.47,0,0,1-35.26,102.89,57.48,57.48,0,0,1,.08-114.95v-1m0,0a58.47,58.47,0,1,0,35.8,12.27,58.36,58.36,0,0,0-35.8-12.27Z" transform="translate(-9.72 578.48)"/><line class="cls-2" x1="2772.22" y1="1441" x2="2265.22" y2="936"/><line class="cls-3" x1="887.22" y1="1276" x2="1209.22" y2="1113"/><line class="cls-1" x1="866.22" y1="848" x2="1541.22" y2="995"/><circle class="cls-18" cx="2158.85" cy="1247.65" r="72.5"/><circle class="cls-18" cx="1708.85" cy="1656.22" r="103"/><circle class="cls-18" cx="1365.15" cy="1898.39" r="116.44"/><circle class="cls-18" cx="1931.82" cy="1387.58" r="72.5"/><line class="cls-8" x1="1976.22" y1="2102" x2="2317.22" y2="1847"/><line class="cls-8" x1="2338.22" y1="1831" x2="2413.22" y2="1538"/><line class="cls-8" x1="2330.22" y1="1860" x2="1992.22" y2="1674"/><line class="cls-8" x1="2768.22" y1="1442" x2="2394.22" y2="1527"/><line class="cls-8" x1="1976.22" y1="2102" x2="1981.22" y2="1709"/><circle class="cls-19" cx="2771.92" cy="1440.59" r="72.5"/><circle class="cls-19" cx="2312.14" cy="1843.07" r="103"/><circle class="cls-19" cx="2414.76" cy="1519.74" r="61.4"/><circle class="cls-19" cx="1972.42" cy="2085.13" r="116.44"/><circle class="cls-19" cx="1993.42" cy="1698.61" r="72.5"/><line class="cls-1" x1="879.98" y1="862.34" x2="887.22" y2="1276"/><line class="cls-1" x1="512.22" y1="1347" x2="862.22" y2="1276"/><line class="cls-1" x1="400.98" y1="983.34" x2="829.22" y2="1268"/><line class="cls-4" x1="418.22" y1="993" x2="176.22" y2="1323"/><line class="cls-4" x1="142.22" y1="753" x2="177.22" y2="1341"/><line class="cls-4" x1="128.22" y1="753" x2="585.22" y2="671"/><line class="cls-4" x1="512.22" y1="1347" x2="409.22" y2="988"/><line class="cls-4" x1="415.22" y1="1673" x2="193.22" y2="1360"/><line class="cls-4" x1="412.22" y1="1702" x2="866.22" y2="1314"/><line class="cls-4" x1="422.22" y1="1664" x2="502.22" y2="1347"/><line class="cls-4" x1="177.22" y1="1341" x2="512.22" y2="1347"/><line class="cls-1" x1="414.98" y1="962.34" x2="866.22" y2="860"/><line class="cls-1" x1="906.98" y1="850.34" x2="1358.22" y2="748"/><path class="cls-20" d="M876.49,353A72,72,0,1,1,914,342.44,71.58,71.58,0,0,1,876.49,353Z" transform="translate(-9.72 578.48)"/><path class="cls-20" d="M876.36,209.51a71.52,71.52,0,1,1-60.93,108.82,71.52,71.52,0,0,1,60.93-108.82h0m0-1a72.51,72.51,0,1,0,61.92,34.68,72.21,72.21,0,0,0-61.92-34.68Z" transform="translate(-9.72 578.48)"/><path class="cls-20" d="M598.16,161.63a72,72,0,1,1,37.5-10.6A71.58,71.58,0,0,1,598.16,161.63Z" transform="translate(-9.72 578.48)"/><path class="cls-20" d="M598,18.1a71.52,71.52,0,0,1,.14,143,71.46,71.46,0,0,1-61.06-34.2A71.52,71.52,0,0,1,598,18.1h0m0-1a72.51,72.51,0,1,0,61.91,34.68A72.31,72.31,0,0,0,598,17.1Z" transform="translate(-9.72 578.48)"/><path class="cls-20" d="M893,817.07A102.55,102.55,0,1,1,946.35,802,101.9,101.9,0,0,1,893,817.07Z" transform="translate(-9.72 578.48)"/><path class="cls-20" d="M892.77,612.54a101.89,101.89,0,0,1,87.1,48.79A102,102,0,0,1,893,816.57a101.93,101.93,0,0,1-87.11-48.79,102,102,0,0,1,86.92-155.24h0m0-1a103,103,0,1,0,88,49.26,102.53,102.53,0,0,0-88-49.26Z" transform="translate(-9.72 578.48)"/><path class="cls-20" d="M1363.63,280.47A116,116,0,1,1,1424,263.42,115.24,115.24,0,0,1,1363.63,280.47Z" transform="translate(-9.72 578.48)"/><path class="cls-20" d="M1363.42,49.06A115.33,115.33,0,0,1,1462,104.27,115.46,115.46,0,0,1,1363.63,280,115.36,115.36,0,0,1,1265,224.76a115.47,115.47,0,0,1,98.37-175.7h0m0-1a116.45,116.45,0,1,0,99.44,55.69,116,116,0,0,0-99.44-55.69Z" transform="translate(-9.72 578.48)"/><path class="cls-20" d="M428.07,548.05a133.37,133.37,0,0,1-114-63.85c-38.41-62.79-18.58-145.12,44.21-183.53a133.43,133.43,0,0,1,183.53,44.21C580.22,407.67,560.38,490,497.6,528.41A133.21,133.21,0,0,1,428.07,548.05Z" transform="translate(-9.72 578.48)"/><path class="cls-20" d="M427.82,281.54a132.87,132.87,0,0,1,113.56,63.61,133,133,0,0,1-113.31,202.4A132.87,132.87,0,0,1,314.5,483.94a133,133,0,0,1,113.32-202.4h0m0-1a134,134,0,1,0,114.42,64.08,133.36,133.36,0,0,0-114.42-64.08Z" transform="translate(-9.72 578.48)"/><path class="cls-21" d="M522.23,847.31A72.33,72.33,0,0,1,460,811.69,72,72,0,0,1,522.1,703.28a72.34,72.34,0,0,1,62.19,35.61,72,72,0,0,1-62.06,108.42Z" transform="translate(-9.72 578.48)"/><path class="cls-21" d="M522.1,703.78a71.51,71.51,0,0,1,61.76,35.37,71.53,71.53,0,0,1-61.63,107.66,71.52,71.52,0,0,1-.13-143h0m0-1a72.51,72.51,0,1,0,62.62,35.86,72.18,72.18,0,0,0-62.62-35.86Z" transform="translate(-9.72 578.48)"/><path class="cls-21" d="M151.91,277.18a102.53,102.53,0,1,1,51.72-14.08A103,103,0,0,1,151.91,277.18Z" transform="translate(-9.72 578.48)"/><path class="cls-21" d="M151.72,72.65a101.9,101.9,0,0,1,88.1,50.45,102,102,0,0,1-87.91,153.58,101.9,101.9,0,0,1-88.1-50.45A102,102,0,0,1,151.72,72.65h0m0-1a103,103,0,1,0,89,50.94,102.54,102.54,0,0,0-89-50.94Z" transform="translate(-9.72 578.48)"/><path class="cls-21" d="M420.59,1218.14a116,116,0,1,1,99.93-174.58,116,116,0,0,1-99.93,174.58Z" transform="translate(-9.72 578.48)"/><path class="cls-21" d="M420.38,986.72a115.4,115.4,0,0,1,99.71,57.1,115.48,115.48,0,0,1-99.5,173.82,115.4,115.4,0,0,1-99.71-57.1,115.46,115.46,0,0,1,99.5-173.82h0m0-1A116.45,116.45,0,1,0,521,1043.31a115.89,115.89,0,0,0-100.58-57.59Z" transform="translate(-9.72 578.48)"/><path class="cls-21" d="M186,901.05a133.41,133.41,0,0,1-115.3-66A133.53,133.53,0,0,1,185.79,634a133.41,133.41,0,0,1,115.3,66,133.53,133.53,0,0,1-115,201Z" transform="translate(-9.72 578.48)"/><path class="cls-21" d="M185.79,634.53a132.9,132.9,0,0,1,114.86,65.78A133,133,0,0,1,186,900.55,132.93,132.93,0,0,1,71.17,834.77,133,133,0,0,1,185.79,634.53h0m0-1a134,134,0,1,0,115.73,66.28,133.38,133.38,0,0,0-115.73-66.28Z" transform="translate(-9.72 578.48)"/><path class="cls-20" d="M1560.7,483.6a72,72,0,0,1-.18-144,74.69,74.69,0,0,1,8,.44,72,72,0,0,1-7.86,143.57Z" transform="translate(-9.72 578.48)"/><path class="cls-20" d="M1560.52,339.09v1h0a73.77,73.77,0,0,1,8,.44,71.5,71.5,0,0,1-7.81,142.57,73.77,73.77,0,0,1-8-.44,71.5,71.5,0,0,1,7.81-142.57v-1m0,0a72.5,72.5,0,0,0-7.92,144.56,73.84,73.84,0,0,0,8.1.45,72.5,72.5,0,0,0,7.92-144.56,71.7,71.7,0,0,0-8.1-.45Z" transform="translate(-9.72 578.48)"/></g><g id="Layer_3" data-name="Layer 3"><text class="cls-22" transform="translate(2679.24 1018)">µ</text><text class="cls-23" transform="translate(100.24 777.12)">µ</text><text class="cls-24" transform="translate(1940.38 2130)">θ</text><text class="cls-25" transform="translate(1261.99 1516.04)">¼</text><text class="cls-26" transform="translate(2386.3 1544)">¼</text><text class="cls-27" transform="translate(355.27 1708.84)">‰</text><text class="cls-28" transform="translate(2541.24 724)">‰</text><text class="cls-29" transform="translate(3077.23 853.91)">%</text><text class="cls-30" transform="translate(832.24 884)">%</text><text class="cls-22" transform="translate(3109.45 1322.01)">∑</text><text class="cls-31" transform="translate(229.55 2110.92)">∑</text><text class="cls-32" transform="translate(1122.1 2217.95)">∑</text><text class="cls-33" transform="translate(1909.24 1408)">∑</text><text class="cls-34" transform="translate(3350.28 1607.73)">σ</text><text class="cls-35" transform="translate(39.24 2355.03)">σ</text><text class="cls-36" transform="translate(1837.53 903.5)">√</text><text class="cls-37" transform="translate(2746.24 1729)">√</text><text class="cls-38" transform="translate(1309.1 787.03)">≥</text><text class="cls-39" transform="translate(1522.99 1016.49)">Δ</text><text class="cls-31" transform="translate(860.24 1776)">≠</text><text class="cls-22" transform="translate(2210.24 972)">∞</text><text class="cls-40" transform="translate(2798.22 2230.06)">x</text><text class="cls-41" transform="translate(493.45 1377.86)">x</text><text class="cls-31" transform="translate(737.2 2313.59)">e</text><text class="cls-42" transform="translate(2131.3 1279.94)">e</text><text class="cls-43" transform="translate(2119.24 723)">p</text><text class="cls-44" transform="translate(3347.64 2267.02)">p</text><text class="cls-45" transform="translate(1599.24 2343)">y</text><text class="cls-46" transform="translate(2788.23 717.16)">y</text><text class="cls-47" transform="translate(3379.97 744.89)">x</text><text class="cls-48" transform="translate(1223.65 1145.95)">∫</text><text class="cls-49" transform="translate(144.24 1388)">∫</text><text class="cls-35" transform="translate(578.24 2047)">#</text><text class="cls-50" transform="translate(2754.24 1489)">*</text><text class="cls-51" transform="translate(3379.24 1107)">*</text><text class="cls-50" transform="translate(1972.67 1727.96)">*</text><text class="cls-35" transform="translate(88.24 1744)">*</text><text class="cls-52" transform="translate(1661.32 1692.98)">½</text><text class="cls-53" transform="translate(2267.44 1887.1)">=</text><text class="cls-54" transform="translate(3110.23 1994.8)">=</text><text class="cls-55" transform="translate(558.57 697.45)">=</text><text class="cls-38" transform="translate(839.24 1328)">÷</text><text class="cls-56" transform="translate(1602.23 1277.24)">÷</text><text class="cls-57" transform="translate(1692.13 680.86)">÷</text><text class="cls-58" transform="translate(2736.29 1975.1)">÷</text><text class="cls-45" transform="translate(2359.84 2266.52)">{ }</text><text class="cls-59" transform="translate(1314.66 1940.43)">Ω</text><text class="cls-38" transform="translate(372.24 1028)">≤</text><text x="-9.72" y="578.48"></text><text x="-9.72" y="578.48"></text></g></svg>