<?xml version="1.0" encoding="utf-8"?>
<!-- Generator: Adobe Illustrator 22.0.1, SVG Export Plug-In . SVG Version: 6.00 Build 0)  -->
<svg version="1.1" id="Layer_1" xmlns="http://www.w3.org/2000/svg" xmlns:xlink="http://www.w3.org/1999/xlink" x="0px" y="0px"
	 viewBox="0 0 42 30.9" style="enable-background:new 0 0 42 30.9;" xml:space="preserve">
<style type="text/css">
	.st0{display:none;}
	.st1{display:inline;}
	.st2{fill:#FF4400;}
	.st3{fill:#636262;}
	.st4{font-family:'CenturyGothic-Bold';}
	.st5{font-size:24px;}
</style>
<g id="Layer_1_1_" xmlns:figma="http://www.figma.com/figma/ns" class="st0">
	<g transform="translate(-1470)" figma:type="canvas" class="st1">
		<g transform="translate(1470)" figma:type="vector">
			<g>
				<path id="r" class="st2" d="M60.8,29.6c0.3,0.3,0.1,0.8-0.4,0.8h-5.8c-0.3,0-0.6-0.1-0.7-0.3l-9.4-10.5V30
					c0,0.3-0.2,0.5-0.5,0.5h-5.4c-0.3,0-0.5-0.2-0.5-0.5V7c0-0.3,0.2-0.5,0.5-0.5h5.3c0.3,0,0.5,0.2,0.5,0.5v9.8l9.1-10
					c0.2-0.2,0.5-0.3,0.7-0.3H60c0.4,0,0.7,0.5,0.4,0.8l-9.9,10.6L60.8,29.6L60.8,29.6z"/>
			</g>
			<g>
				<path id="c" class="st2" d="M84.1,30.4c-0.2,0-0.4-0.1-0.5-0.3l-2-4.7H70.9l-2,4.7c-0.1,0.2-0.3,0.3-0.5,0.3h-5.2
					c-0.4,0-0.6-0.4-0.5-0.7l10.8-23c0.1-0.2,0.3-0.3,0.5-0.3h4.4c0.2,0,0.4,0.1,0.5,0.3l10.8,23c0.2,0.3-0.1,0.7-0.5,0.7
					C89.2,30.4,84.1,30.4,84.1,30.4z M73,20.7h6.6L76.3,13L73,20.7L73,20.7z"/>
			</g>
			<g>
				<path id="d" class="st2" d="M93.6,30.4c-0.3,0-0.5-0.2-0.5-0.5v-23c0-0.3,0.2-0.5,0.5-0.5h5.3c0.3,0,0.5,0.2,0.5,0.5v18.4h9.8
					c0.3,0,0.5,0.2,0.5,0.5v4.1c0,0.3-0.2,0.5-0.5,0.5H93.6z"/>
			</g>
			<g>
				<path id="e" class="st2" d="M113.4,6.9c0-0.3,0.2-0.5,0.5-0.5h9.3c2.7,0,5,0.5,6.9,1.4c1.9,1,3.4,2.3,4.4,4.2
					c1,1.8,1.5,3.9,1.5,6.4s-0.5,4.7-1.5,6.5s-2.5,3.2-4.4,4.1c-1.9,1-4.2,1.4-6.9,1.4h-9.3c-0.3,0-0.5-0.2-0.5-0.5V6.9z
					 M122.7,25.4c2.4,0,4.1-0.6,5.3-1.7c1.2-1.2,1.7-2.9,1.7-5.2s-0.6-4.1-1.7-5.2c-1.2-1.2-2.9-1.7-5.3-1.7h-3.1v13.8H122.7z"/>
			</g>
			<g>
				<path id="f" class="st2" d="M141,30.4c-0.3,0-0.5-0.2-0.5-0.5v-23c0-0.3,0.2-0.5,0.5-0.5h5.3c0.3,0,0.5,0.2,0.5,0.5v23
					c0,0.3-0.2,0.5-0.5,0.5H141z"/>
			</g>
		</g>
	</g>
</g>
<text transform="matrix(1 0 0 1 5.5164 24.5123)" class="st3 st4 st5">D3</text>
</svg>
